<svg xmlns="http://www.w3.org/2000/svg" width="272" height="130" viewBox="0 0 272 130">
  <defs>
    <style>
      .cls-1 {
        stroke: #000;
        stroke-width: 1px;
      }

      .cls-1, .cls-2 {
        fill-rule: evenodd;
      }

      .cls-2 {
        fill: #d68131;
      }
    </style>
  </defs>
  <path class="cls-1" d="M16,20s3.8-7.249,10-7,11,7,11,7V94H69a9.943,9.943,0,0,1,7,10c-0.08,8.151-6,9-6,9l-47,1s-6.112-.716-7-10V20Z"/>
  <path class="cls-1" d="M83,48s3.126-6.6,10-6,8,5,8,5l1,60s-3,7.857-9,8-10-8-10-8V48Z"/>
  <path class="cls-2" d="M112,109l1-37c5.65-18.444,20.064-30.051,35-31,12.218-.777,22.825,6.167,29,12a45.946,45.946,0,0,1,12,19v36s-2.758,6.03-7,6v3l2,1v3H174v-3h1v-3s-6.3-3.573-6-8V74a23.717,23.717,0,0,0-9-10,19.76,19.76,0,0,0-9-3,17.733,17.733,0,0,0-12,4c-1.86,1.541-5.989,8.977-6,9h0v32s-1.792,8.016-7,9v2l2,1v3H117v-2l2-2v-2S112.47,113.293,112,109Z"/>
  <path class="cls-2" d="M199,21s3.49-7.086,10-7,10,6,10,6V64h2l26-26s7.659-2.156,12,2,2,11,2,11L238,75v2l23,23s2.769,8.131-3,12-12,1-12,1L221,89h-2v18s-2.269,7.929-9,8-11-8-11-8V21Z"/>
  <path class="cls-2" d="M76,41c-1.217.276-2.546,0.239-3.1-.516-0.3-.413-0.39-1.217.1-2.484,1.7-4.362,9.45-11.007,20-11a25.874,25.874,0,0,1,8.072,1.343A29.487,29.487,0,0,1,114,37a5.343,5.343,0,0,1,.137,1.682A2.549,2.549,0,0,1,113,41c-1.7.846-4-1-4-1s-6.574-8.011-15-8S77.859,38.661,76,41Z"/>
  <path id="Shape_5_copy" data-name="Shape 5 copy" class="cls-2" d="M69.5,31.725c-2.125.516-3.806,0.153-4.484-.846C64.644,30.326,64.509,29.443,65,28c1.436-4.225,6.552-6.944,11-9,6.807-3.147,12.227-4.909,16.893-4.882a32.257,32.257,0,0,1,7.5.987A44.979,44.979,0,0,1,110,19a56.664,56.664,0,0,1,5,3,29.819,29.819,0,0,0,2.892,2.347,29.805,29.805,0,0,0,3.893,2.347,6.117,6.117,0,0,1,.188,2.116,3.123,3.123,0,0,1-1.564,2.915c-2.336,1.065-5.5-1.258-5.5-1.258s-9.044-10.075-20.638-10.061S72.061,28.783,69.5,31.725Z"/>
</svg>
